<svg width="16" height="16" viewBox="0 0 16 16" fill="none" xmlns="http://www.w3.org/2000/svg">
<path d="M8 16C6.89333 16 5.85333 15.79 4.88 15.37C3.90667 14.95 3.06 14.38 2.34 13.66C1.62 12.94 1.05 12.0933 0.63 11.12C0.21 10.1467 0 9.10667 0 8C0 6.89333 0.21 5.85333 0.63 4.88C1.05 3.90667 1.62 3.06 2.34 2.34C3.06 1.62 3.90667 1.05 4.88 0.63C5.85333 0.21 6.89333 0 8 0C9.10667 0 10.1467 0.21 11.12 0.63C12.0933 1.05 12.94 1.62 13.66 2.34C14.38 3.06 14.95 3.90667 15.37 4.88C15.79 5.85333 16 6.89333 16 8C16 9.10667 15.79 10.1467 15.37 11.12C14.95 12.0933 14.38 12.94 13.66 13.66C12.94 14.38 12.0933 14.95 11.12 15.37C10.1467 15.79 9.10667 16 8 16ZM8 14.4C9.78667 14.4 11.3 13.78 12.54 12.54C13.78 11.3 14.4 9.78667 14.4 8C14.4 6.21333 13.78 4.7 12.54 3.46C11.3 2.22 9.78667 1.6 8 1.6C6.21333 1.6 4.7 2.22 3.46 3.46C2.22 4.7 1.6 6.21333 1.6 8C1.6 9.78667 2.22 11.3 3.46 12.54C4.7 13.78 6.21333 14.4 8 14.4ZM6.4 11.2H9.6C9.82667 11.2 10.0167 11.1233 10.17 10.97C10.3233 10.8167 10.4 10.6267 10.4 10.4V9.6C10.4 9.37333 10.3233 9.18333 10.17 9.03C10.0167 8.87667 9.82667 8.8 9.6 8.8C9.37333 8.8 9.18333 8.87667 9.03 9.03C8.87667 9.18333 8.8 9.37333 8.8 9.6H7.2V6.4H8.8C8.8 6.62667 8.87667 6.81667 9.03 6.97C9.18333 7.12333 9.37333 7.2 9.6 7.2C9.82667 7.2 10.0167 7.12333 10.17 6.97C10.3233 6.81667 10.4 6.62667 10.4 6.4V5.6C10.4 5.37333 10.3233 5.18333 10.17 5.03C10.0167 4.87667 9.82667 4.8 9.6 4.8H6.4C6.17333 4.8 5.98333 4.87667 5.83 5.03C5.67667 5.18333 5.6 5.37333 5.6 5.6V10.4C5.6 10.6267 5.67667 10.8167 5.83 10.97C5.98333 11.1233 6.17333 11.2 6.4 11.2Z" fill="#8F8F8F"/>
</svg>
