<svg width="16" height="17" viewBox="0 0 16 17" fill="none" xmlns="http://www.w3.org/2000/svg">
<path d="M2 16.7002C1.45 16.7002 0.979167 16.5367 0.5875 16.2097C0.195833 15.8826 0 15.4895 0 15.0302V5.01007C0 4.23073 0.283333 3.5488 0.85 2.96429C1.41667 2.37978 2.13333 1.99011 3 1.79528V0.835012C3 0.598425 3.09583 0.40011 3.2875 0.240066C3.47917 0.080022 3.71667 0 4 0H5C5.28333 0 5.52083 0.080022 5.7125 0.240066C5.90417 0.40011 6 0.598425 6 0.835012V1.67002H10V0.835012C10 0.598425 10.0958 0.40011 10.2875 0.240066C10.4792 0.080022 10.7167 0 11 0H12C12.2833 0 12.5208 0.080022 12.7125 0.240066C12.9042 0.40011 13 0.598425 13 0.835012V1.79528C13.8667 1.99011 14.5833 2.37978 15.15 2.96429C15.7167 3.5488 16 4.23073 16 5.01007V15.0302C16 15.4895 15.8042 15.8826 15.4125 16.2097C15.0208 16.5367 14.55 16.7002 14 16.7002H2ZM10.5 10.0201V10.8552C10.5 11.0917 10.5958 11.2901 10.7875 11.4501C10.9792 11.6102 11.2167 11.6902 11.5 11.6902C11.7833 11.6902 12.0208 11.6102 12.2125 11.4501C12.4042 11.2901 12.5 11.0917 12.5 10.8552V9.18513C12.5 8.94855 12.4042 8.75023 12.2125 8.59019C12.0208 8.43015 11.7833 8.35012 11.5 8.35012H4.5C4.21667 8.35012 3.97917 8.43015 3.7875 8.59019C3.59583 8.75023 3.5 8.94855 3.5 9.18513C3.5 9.42172 3.59583 9.62004 3.7875 9.78008C3.97917 9.94013 4.21667 10.0201 4.5 10.0201H10.5Z" fill="url(#paint0_linear_319_36)"/>
<defs>
<linearGradient id="paint0_linear_319_36" x1="8" y1="0" x2="8" y2="16.7002" gradientUnits="userSpaceOnUse">
<stop stop-color="#BEAA47"/>
<stop offset="1" stop-color="#DBC86A"/>
</linearGradient>
</defs>
</svg>
