<svg width="20" height="17" viewBox="0 0 20 17" fill="none" xmlns="http://www.w3.org/2000/svg">
<path d="M18.0861 12.1783V6.53176L10.3828 10.7188C10.0957 10.8783 9.79266 10.958 9.47368 10.958C9.15471 10.958 8.85168 10.8783 8.56459 10.7188L0.478469 6.31643C0.30303 6.22072 0.179426 6.10109 0.107656 5.95754C0.0358852 5.81398 0 5.65448 0 5.47902C0 5.30356 0.0358852 5.14406 0.107656 5.0005C0.179426 4.85695 0.30303 4.73732 0.478469 4.64162L8.56459 0.239259C8.70813 0.159506 8.85566 0.0996911 9.00718 0.0598146C9.15869 0.0199382 9.31419 0 9.47368 0C9.63317 0 9.78868 0.0199382 9.94019 0.0598146C10.0917 0.0996911 10.2392 0.159506 10.3828 0.239259L19.4976 5.21584C19.6571 5.29559 19.7807 5.41123 19.8684 5.56276C19.9561 5.71429 20 5.87778 20 6.05324V12.1783C20 12.4494 19.9083 12.6767 19.7249 12.8601C19.5415 13.0436 19.3142 13.1353 19.0431 13.1353C18.7719 13.1353 18.5447 13.0436 18.3612 12.8601C18.1778 12.6767 18.0861 12.4494 18.0861 12.1783ZM8.56459 16.461L3.7799 13.877C3.46093 13.7015 3.21372 13.4623 3.03828 13.1592C2.86284 12.8562 2.77512 12.5292 2.77512 12.1783V8.54153L8.56459 11.6758C8.85168 11.8353 9.15471 11.9151 9.47368 11.9151C9.79266 11.9151 10.0957 11.8353 10.3828 11.6758L16.1722 8.54153V12.1783C16.1722 12.5292 16.0845 12.8562 15.9091 13.1592C15.7337 13.4623 15.4864 13.7015 15.1675 13.877L10.3828 16.461C10.2392 16.5407 10.0917 16.6006 9.94019 16.6404C9.78868 16.6803 9.63317 16.7002 9.47368 16.7002C9.31419 16.7002 9.15869 16.6803 9.00718 16.6404C8.85566 16.6006 8.70813 16.5407 8.56459 16.461Z" fill="url(#paint0_linear_319_34)"/>
<defs>
<linearGradient id="paint0_linear_319_34" x1="10" y1="0" x2="10" y2="16.7002" gradientUnits="userSpaceOnUse">
<stop stop-color="#BEAA47"/>
<stop offset="1" stop-color="#DBC86A"/>
</linearGradient>
</defs>
</svg>
