<svg width="177" height="37" viewBox="0 0 177 37" fill="none" xmlns="http://www.w3.org/2000/svg">
<path d="M0.25 19.3828C0.25 16.1641 0.828125 13.2266 1.98438 10.5703C3.14062 7.91406 4.83594 5.78125 7.07031 4.17188C9.32031 2.54688 11.9062 1.73438 14.8281 1.73438C19.2344 1.73438 22.7812 3.28906 25.4688 6.39844C28.1719 9.50781 29.5234 13.5859 29.5234 18.6328C29.5234 20.4766 29.3359 22.2656 28.9609 24C28.6016 25.7344 28.0312 27.3828 27.25 28.9453C26.4688 30.4922 25.5156 31.8516 24.3906 33.0234C23.2812 34.1797 21.9141 35.1016 20.2891 35.7891C18.6641 36.4766 16.8906 36.8203 14.9688 36.8203C10.3906 36.8203 6.78906 35.2266 4.16406 32.0391C1.55469 28.8516 0.25 24.6328 0.25 19.3828ZM6.53125 18.8672C6.53125 21.9453 6.83594 24.7266 7.44531 27.2109C8.05469 29.6797 8.99219 31.6875 10.2578 33.2344C11.5391 34.7656 13.0625 35.5312 14.8281 35.5312C17.4531 35.5312 19.5078 34.0078 20.9922 30.9609C22.4922 27.9141 23.2422 23.8672 23.2422 18.8203C23.2422 13.5703 22.5078 9.625 21.0391 6.98438C19.5859 4.34375 17.5625 3.02344 14.9688 3.02344C14.0625 3.02344 13.1953 3.21094 12.3672 3.58594C11.5547 3.96094 10.7891 4.5625 10.0703 5.39062C9.35156 6.21875 8.73438 7.24219 8.21875 8.46094C7.70312 9.66406 7.28906 11.1562 6.97656 12.9375C6.67969 14.7188 6.53125 16.6953 6.53125 18.8672Z" fill="#DBC86A"/>
<path d="M34.8766 4.40625V3.44531L39.775 2.92969L43.0797 2.0625L43.5016 2.74219V34.8047L45.9156 35.0391V36H35.3453V35.0391L37.7594 34.8047V4.40625H34.8766Z" fill="#DBC86A"/>
<path d="M51.0578 14.3438V13.3828L55.9562 12.8672L59.2609 12L59.6828 12.6797V34.8047L62.0969 35.0391V36H51.5266V35.0391L53.9406 34.8047V14.3438H51.0578ZM53.6125 3.67969C53.6125 3.24219 53.6906 2.83594 53.8469 2.46094C54.0187 2.08594 54.2453 1.75781 54.5266 1.47656C54.8078 1.19531 55.1359 0.976562 55.5109 0.820312C55.8859 0.664062 56.2844 0.585938 56.7062 0.585938C57.1281 0.585938 57.5266 0.671875 57.9016 0.84375C58.2766 1 58.6047 1.21875 58.8859 1.5C59.1828 1.78125 59.4094 2.10938 59.5656 2.48438C59.7375 2.85938 59.8234 3.25781 59.8234 3.67969C59.8234 4.10156 59.7375 4.5 59.5656 4.875C59.4094 5.25 59.1906 5.58594 58.9094 5.88281C58.6281 6.16406 58.3 6.39062 57.925 6.5625C57.55 6.71875 57.1437 6.79688 56.7062 6.79688C56.2687 6.79688 55.8625 6.71875 55.4875 6.5625C55.1125 6.39062 54.7844 6.16406 54.5031 5.88281C54.2219 5.60156 54.0031 5.27344 53.8469 4.89844C53.6906 4.52344 53.6125 4.11719 53.6125 3.67969Z" fill="#DBC86A"/>
<path d="M65.575 13.4297V12.4688H76.6609V13.4297L74.1297 13.6875L79.6609 28.4531H79.7547L84.8172 13.6875L82.2391 13.4297V12.4688H88.6609V13.4297L86.2234 13.6875L78.3719 36.2344H77.2937L67.8953 13.6875L65.575 13.4297Z" fill="#DBC86A"/>
<path d="M92.0922 24.2344C92.0922 23.0156 92.2094 21.8281 92.4437 20.6719C92.6781 19.5 93.0609 18.375 93.5922 17.2969C94.1234 16.2188 94.7719 15.2734 95.5375 14.4609C96.3031 13.6484 97.2484 13 98.3734 12.5156C99.5141 12.0156 100.772 11.7656 102.147 11.7656C103.444 11.7656 104.608 11.9531 105.639 12.3281C106.67 12.6875 107.53 13.1953 108.217 13.8516C108.905 14.5078 109.475 15.3125 109.928 16.2656C110.381 17.2031 110.702 18.2266 110.889 19.3359C111.092 20.4297 111.194 21.6328 111.194 22.9453L110.561 23.5312H98.0922V24.9609C98.0922 31.7734 100.03 35.1797 103.905 35.1797C106.655 35.1797 108.85 33.8047 110.491 31.0547L111.405 31.6172C109.389 35.0078 106.522 36.7031 102.803 36.7031C99.2094 36.7031 96.5219 35.5938 94.7406 33.375C92.975 31.1562 92.0922 28.1094 92.0922 24.2344ZM98.0922 22.4766L105.662 22.1719C105.709 21.375 105.733 20.6094 105.733 19.875C105.733 17.6094 105.459 15.8672 104.912 14.6484C104.381 13.4297 103.491 12.8203 102.241 12.8203C101.491 12.8203 100.842 13.0703 100.295 13.5703C99.7641 14.0547 99.35 14.7578 99.0531 15.6797C98.7562 16.6016 98.5297 17.6094 98.3734 18.7031C98.2328 19.7812 98.1391 21.0391 98.0922 22.4766Z" fill="#DBC86A"/>
<path d="M116.945 14.3438V13.3828L121.844 12.8672L125.148 12L125.57 12.6797V34.8047L127.984 35.0391V36H117.414V35.0391L119.828 34.8047V14.3438H116.945ZM119.5 3.67969C119.5 3.24219 119.578 2.83594 119.734 2.46094C119.906 2.08594 120.133 1.75781 120.414 1.47656C120.695 1.19531 121.023 0.976562 121.398 0.820312C121.773 0.664062 122.172 0.585938 122.594 0.585938C123.016 0.585938 123.414 0.671875 123.789 0.84375C124.164 1 124.492 1.21875 124.773 1.5C125.07 1.78125 125.297 2.10938 125.453 2.48438C125.625 2.85938 125.711 3.25781 125.711 3.67969C125.711 4.10156 125.625 4.5 125.453 4.875C125.297 5.25 125.078 5.58594 124.797 5.88281C124.516 6.16406 124.188 6.39062 123.812 6.5625C123.438 6.71875 123.031 6.79688 122.594 6.79688C122.156 6.79688 121.75 6.71875 121.375 6.5625C121 6.39062 120.672 6.16406 120.391 5.88281C120.109 5.60156 119.891 5.27344 119.734 4.89844C119.578 4.52344 119.5 4.11719 119.5 3.67969Z" fill="#DBC86A"/>
<path d="M133.08 14.3438V13.3828L137.978 12.8672L141.283 12L141.611 12.6797V16.7109H141.705C142.017 16.0859 142.4 15.4766 142.853 14.8828C143.306 14.2891 143.798 13.7656 144.33 13.3125C144.877 12.8438 145.455 12.4688 146.064 12.1875C146.673 11.9062 147.291 11.7656 147.916 11.7656C149.134 11.7656 150.072 12.0938 150.728 12.75C151.4 13.3906 151.736 14.25 151.736 15.3281C151.736 15.7812 151.666 16.2031 151.525 16.5938C151.384 16.9688 151.181 17.2969 150.916 17.5781C150.666 17.8594 150.353 18.0859 149.978 18.2578C149.619 18.4141 149.22 18.4922 148.783 18.4922C148.314 18.4922 147.892 18.4141 147.517 18.2578C147.142 18.1016 146.822 17.8906 146.556 17.625C146.306 17.3594 146.111 17.0547 145.97 16.7109C145.83 16.3516 145.759 15.9688 145.759 15.5625C145.759 14.7344 145.931 14.125 146.275 13.7344V13.5938C145.712 13.7188 145.158 14.0156 144.611 14.4844C144.08 14.9531 143.595 15.5938 143.158 16.4062C142.72 17.2031 142.369 18.1719 142.103 19.3125C141.837 20.4375 141.705 21.7109 141.705 23.1328V34.8047L144.119 35.0391V36H133.548V35.0391L135.962 34.8047V14.3438H133.08Z" fill="#DBC86A"/>
<path d="M156.175 30.9141C156.175 30.1484 156.292 29.4141 156.527 28.7109C156.777 27.9922 157.175 27.3047 157.722 26.6484C158.269 25.9922 158.941 25.4219 159.738 24.9375C160.534 24.4531 161.519 24.0703 162.691 23.7891C163.878 23.4922 165.191 23.3438 166.628 23.3438C167.394 23.3438 168.12 23.375 168.808 23.4375V20.2031C168.808 19.1719 168.784 18.3359 168.738 17.6953C168.706 17.0547 168.613 16.3984 168.456 15.7266C168.3 15.0391 168.073 14.5156 167.777 14.1562C167.495 13.7812 167.089 13.4766 166.558 13.2422C166.042 12.9922 165.409 12.8672 164.659 12.8672C162.378 12.8672 160.714 13.7656 159.667 15.5625V15.6562C159.933 15.6094 160.175 15.5859 160.394 15.5859C161.206 15.5859 161.847 15.8359 162.316 16.3359C162.784 16.8359 163.019 17.5547 163.019 18.4922C163.019 19.3047 162.738 19.9922 162.175 20.5547C161.613 21.1016 160.909 21.375 160.066 21.375C159.144 21.375 158.417 21.0625 157.886 20.4375C157.355 19.8125 157.089 19.0781 157.089 18.2344C157.089 16.3906 157.933 14.8516 159.62 13.6172C161.323 12.3828 163.277 11.7656 165.48 11.7656C167.042 11.7656 168.37 11.9297 169.464 12.2578C170.573 12.5859 171.456 13.0234 172.113 13.5703C172.769 14.1016 173.277 14.8359 173.636 15.7734C174.011 16.6953 174.253 17.6406 174.363 18.6094C174.488 19.5781 174.55 20.7656 174.55 22.1719V34.8047L176.964 35.0391V36H169.511L168.855 32.2969H168.808C168.042 33.7812 167.113 34.8906 166.019 35.625C164.941 36.3438 163.628 36.7031 162.081 36.7031C160.175 36.7031 158.714 36.1328 157.698 34.9922C156.683 33.8516 156.175 32.4922 156.175 30.9141ZM161.847 30.4219C161.847 31.6719 162.081 32.6875 162.55 33.4688C163.019 34.2344 163.706 34.6172 164.613 34.6172C165.675 34.6172 166.636 33.9531 167.495 32.625C168.37 31.2969 168.808 29.6719 168.808 27.75V24.5156C168.183 24.4375 167.675 24.3984 167.284 24.3984C166.472 24.3984 165.745 24.5078 165.105 24.7266C164.48 24.9453 163.98 25.2422 163.605 25.6172C163.23 25.9922 162.917 26.3906 162.667 26.8125C162.417 27.2188 162.238 27.6719 162.128 28.1719C162.019 28.6719 161.941 29.0859 161.894 29.4141C161.863 29.7422 161.847 30.0781 161.847 30.4219Z" fill="#DBC86A"/>
</svg>
